<svg xmlns="http://www.w3.org/2000/svg" viewBox="0 0 2095.667 3487.36">
  <defs><linearGradient id="c" spreadMethod="pad" gradientTransform="matrix(7 0 0 7 826.14 1301.32)" gradientUnits="userSpaceOnUse" y2="0" x2="1" y1="0" x1="0"><stop offset="0" stop-color="#a62935"/><stop offset=".992" stop-color="#b3152c"/><stop offset="1" stop-color="#b3152c"/></linearGradient><linearGradient id="d" spreadMethod="pad" gradientTransform="translate(302.898 2125.53) scale(256.614)" gradientUnits="userSpaceOnUse" y2="0" x2="1" y1="0" x1="0"><stop offset="0" stop-color="#a62935"/><stop offset=".992" stop-color="#b3152c"/><stop offset="1" stop-color="#b3152c"/></linearGradient><linearGradient id="e" spreadMethod="pad" gradientTransform="matrix(7 0 0 7 -3.5 2667.713)" gradientUnits="userSpaceOnUse" y2="0" x2="1" y1="0" x1="0"><stop offset="0" stop-color="#a62935"/><stop offset=".992" stop-color="#b3152c"/><stop offset="1" stop-color="#b3152c"/></linearGradient><linearGradient id="f" spreadMethod="pad" gradientTransform="matrix(7 0 0 7 -3.5 2667.713)" gradientUnits="userSpaceOnUse" y2="0" x2="1" y1="0" x1="0"><stop offset="0" stop-color="#a62935"/><stop offset=".992" stop-color="#b3152c"/><stop offset="1" stop-color="#b3152c"/></linearGradient><linearGradient id="g" spreadMethod="pad" gradientTransform="matrix(7 0 0 7 -3.5 2667.713)" gradientUnits="userSpaceOnUse" y2="0" x2="1" y1="0" x1="0"><stop offset="0" stop-color="#a62935"/><stop offset=".992" stop-color="#b3152c"/><stop offset="1" stop-color="#b3152c"/></linearGradient><linearGradient id="h" spreadMethod="pad" gradientTransform="matrix(7 0 0 7 -3.5 2667.713)" gradientUnits="userSpaceOnUse" y2="0" x2="1" y1="0" x1="0"><stop offset="0" stop-color="#a62935"/><stop offset=".992" stop-color="#b3152c"/><stop offset="1" stop-color="#b3152c"/></linearGradient><linearGradient id="i" spreadMethod="pad" gradientTransform="matrix(7 0 0 7 -3.5 2667.713)" gradientUnits="userSpaceOnUse" y2="0" x2="1" y1="0" x1="0"><stop offset="0" stop-color="#a62935"/><stop offset=".992" stop-color="#b3152c"/><stop offset="1" stop-color="#b3152c"/></linearGradient><linearGradient id="j" spreadMethod="pad" gradientTransform="matrix(7 0 0 7 -3.5 2667.713)" gradientUnits="userSpaceOnUse" y2="0" x2="1" y1="0" x1="0"><stop offset="0" stop-color="#a62935"/><stop offset=".992" stop-color="#b3152c"/><stop offset="1" stop-color="#b3152c"/></linearGradient><linearGradient id="k" spreadMethod="pad" gradientTransform="translate(-545.595 1646.946) scale(1252.33)" gradientUnits="userSpaceOnUse" y2="0" x2="1" y1="0" x1="0"><stop offset="0" stop-color="#a62935"/><stop offset=".992" stop-color="#b3152c"/><stop offset="1" stop-color="#b3152c"/></linearGradient><linearGradient id="l" spreadMethod="pad" gradientTransform="matrix(7 0 0 7 -3.5 2667.713)" gradientUnits="userSpaceOnUse" y2="0" x2="1" y1="0" x1="0"><stop offset="0" stop-color="#a62935"/><stop offset=".992" stop-color="#b3152c"/><stop offset="1" stop-color="#b3152c"/></linearGradient><linearGradient id="m" spreadMethod="pad" gradientTransform="translate(-389.12 2221.109) scale(417.24)" gradientUnits="userSpaceOnUse" y2="0" x2="1" y1="0" x1="0"><stop offset="0" stop-color="#a62935"/><stop offset=".992" stop-color="#b3152c"/><stop offset="1" stop-color="#b3152c"/></linearGradient><linearGradient id="n" spreadMethod="pad" gradientTransform="translate(-277.244 2259.865) scale(314.564)" gradientUnits="userSpaceOnUse" y2="0" x2="1" y1="0" x1="0"><stop offset="0" stop-color="#a62935"/><stop offset=".992" stop-color="#b3152c"/><stop offset="1" stop-color="#b3152c"/></linearGradient><linearGradient id="o" spreadMethod="pad" gradientTransform="translate(-305.94 2615.517) scale(305.939)" gradientUnits="userSpaceOnUse" y2="0" x2="1" y1="0" x1="0"><stop offset="0" stop-color="#a62935"/><stop offset=".992" stop-color="#b3152c"/><stop offset="1" stop-color="#b3152c"/></linearGradient><linearGradient id="p" spreadMethod="pad" gradientTransform="translate(-305.94 2615.517) scale(305.939)" gradientUnits="userSpaceOnUse" y2="0" x2="1" y1="0" x1="0"><stop offset="0" stop-color="#a62935"/><stop offset=".992" stop-color="#b3152c"/><stop offset="1" stop-color="#b3152c"/></linearGradient><linearGradient id="q" spreadMethod="pad" gradientTransform="translate(0 2615.524) scale(34.3832)" gradientUnits="userSpaceOnUse" y2="0" x2="1" y1="0" x1="0"><stop offset="0" stop-color="#a62935"/><stop offset=".992" stop-color="#b3152c"/><stop offset="1" stop-color="#b3152c"/></linearGradient><linearGradient id="r" spreadMethod="pad" gradientTransform="translate(0 2615.517) scale(34.3832)" gradientUnits="userSpaceOnUse" y2="0" x2="1" y1="0" x1="0"><stop offset="0" stop-color="#a62935"/><stop offset=".992" stop-color="#b3152c"/><stop offset="1" stop-color="#b3152c"/></linearGradient><linearGradient id="s" spreadMethod="pad" gradientTransform="translate(0 2615.522) scale(34.3832)" gradientUnits="userSpaceOnUse" y2="0" x2="1" y1="0" x1="0"><stop offset="0" stop-color="#a62935"/><stop offset=".992" stop-color="#b3152c"/><stop offset="1" stop-color="#b3152c"/></linearGradient><linearGradient id="v" spreadMethod="pad" gradientTransform="matrix(59.8083 0 0 -59.8083 556.029 1384.39)" gradientUnits="userSpaceOnUse" y2="0" x2="1" y1="0" x1="0"><stop offset="0" stop-color="#a62935"/><stop offset=".992" stop-color="#b3152c"/><stop offset="1" stop-color="#b3152c"/></linearGradient><linearGradient id="x" spreadMethod="pad" gradientTransform="matrix(59.8083 0 0 -59.8083 556.029 1241.09)" gradientUnits="userSpaceOnUse" y2="0" x2="1" y1="0" x1="0"><stop offset="0" stop-color="#a62935"/><stop offset=".992" stop-color="#b3152c"/><stop offset="1" stop-color="#b3152c"/></linearGradient><linearGradient id="y" spreadMethod="pad" gradientTransform="matrix(7 0 0 7 -3.5 2638.305)" gradientUnits="userSpaceOnUse" y2="0" x2="1" y1="0" x1="0"><stop offset="0" stop-color="#a62935"/><stop offset=".992" stop-color="#b3152c"/><stop offset="1" stop-color="#b3152c"/></linearGradient><linearGradient id="z" spreadMethod="pad" gradientTransform="matrix(7 0 0 7 -3.5 2638.305)" gradientUnits="userSpaceOnUse" y2="0" x2="1" y1="0" x1="0"><stop offset="0" stop-color="#a62935"/><stop offset=".992" stop-color="#b3152c"/><stop offset="1" stop-color="#b3152c"/></linearGradient><linearGradient id="A" spreadMethod="pad" gradientTransform="matrix(16 0 0 16 -8 2494.927)" gradientUnits="userSpaceOnUse" y2="0" x2="1" y1="0" x1="0"><stop offset="0" stop-color="#a62935"/><stop offset=".992" stop-color="#b3152c"/><stop offset="1" stop-color="#b3152c"/></linearGradient><linearGradient id="B" spreadMethod="pad" gradientTransform="matrix(16 0 0 16 -8 2736.112)" gradientUnits="userSpaceOnUse" y2="0" x2="1" y1="0" x1="0"><stop offset="0" stop-color="#a62935"/><stop offset=".992" stop-color="#b3152c"/><stop offset="1" stop-color="#b3152c"/></linearGradient><linearGradient id="E" spreadMethod="pad" gradientTransform="rotate(-90 1426.941 808.325) scale(64.2711)" gradientUnits="userSpaceOnUse" y2="0" x2="1" y1="0" x1="0"><stop offset="0" stop-color="#a62935"/><stop offset=".992" stop-color="#b3152c"/><stop offset="1" stop-color="#b3152c"/></linearGradient><linearGradient id="G" spreadMethod="pad" gradientTransform="matrix(-46.7373 0 0 46.7373 1014.46 1169.36)" gradientUnits="userSpaceOnUse" y2="0" x2="1" y1="0" x1="0"><stop offset="0" stop-color="#a62935"/><stop offset=".992" stop-color="#b3152c"/><stop offset="1" stop-color="#b3152c"/></linearGradient><linearGradient id="I" spreadMethod="pad" gradientTransform="matrix(0 -64.2711 -64.2711 0 691.677 2235.267)" gradientUnits="userSpaceOnUse" y2="0" x2="1" y1="0" x1="0"><stop offset="0" stop-color="#a62935"/><stop offset=".992" stop-color="#b3152c"/><stop offset="1" stop-color="#b3152c"/></linearGradient><linearGradient id="J" spreadMethod="pad" gradientTransform="translate(0 2615.52) scale(393.805)" gradientUnits="userSpaceOnUse" y2="0" x2="1" y1="0" x1="0"><stop offset="0" stop-color="#a62935"/><stop offset=".992" stop-color="#b3152c"/><stop offset="1" stop-color="#b3152c"/></linearGradient><linearGradient id="K" spreadMethod="pad" gradientTransform="translate(0 2615.522) scale(401.944)" gradientUnits="userSpaceOnUse" y2="0" x2="1" y1="0" x1="0"><stop offset="0" stop-color="#a62935"/><stop offset=".992" stop-color="#b3152c"/><stop offset="1" stop-color="#b3152c"/></linearGradient><linearGradient id="O" spreadMethod="pad" gradientTransform="matrix(68.09366 0 0 -68.09366 544.243 1870.855)" gradientUnits="userSpaceOnUse" y2="0" x2="1" y1="0" x1="0"><stop offset="0" stop-color="#a62935"/><stop offset=".992" stop-color="#b3152c"/><stop offset="1" stop-color="#b3152c"/></linearGradient><linearGradient id="R" spreadMethod="pad" gradientTransform="matrix(179.91585 0 0 -179.91585 432.169 1925.849)" gradientUnits="userSpaceOnUse" y2="0" x2="1" y1="0" x1="0"><stop offset="0" stop-color="#a62935"/><stop offset=".992" stop-color="#b3152c"/><stop offset="1" stop-color="#b3152c"/></linearGradient><linearGradient id="U" spreadMethod="pad" gradientTransform="matrix(296.17175 0 0 -296.17175 315.913 1980.993)" gradientUnits="userSpaceOnUse" y2="0" x2="1" y1="0" x1="0"><stop offset="0" stop-color="#a62935"/><stop offset=".992" stop-color="#b3152c"/><stop offset="1" stop-color="#b3152c"/></linearGradient><linearGradient id="X" spreadMethod="pad" gradientTransform="matrix(304.95856 0 0 -304.95856 306.888 2068.872)" gradientUnits="userSpaceOnUse" y2="0" x2="1" y1="0" x1="0"><stop offset="0" stop-color="#a62935"/><stop offset=".992" stop-color="#b3152c"/><stop offset="1" stop-color="#b3152c"/></linearGradient><linearGradient id="aa" spreadMethod="pad" gradientTransform="matrix(307.06097 0 0 -307.06097 306.888 2180.257)" gradientUnits="userSpaceOnUse" y2="0" x2="1" y1="0" x1="0"><stop offset="0" stop-color="#a62935"/><stop offset=".992" stop-color="#b3152c"/><stop offset="1" stop-color="#b3152c"/></linearGradient><linearGradient id="ad" spreadMethod="pad" gradientTransform="matrix(307.72095 0 0 -307.72095 306.228 2265.757)" gradientUnits="userSpaceOnUse" y2="0" x2="1" y1="0" x1="0"><stop offset="0" stop-color="#a62935"/><stop offset=".992" stop-color="#b3152c"/><stop offset="1" stop-color="#b3152c"/></linearGradient><linearGradient id="ag" spreadMethod="pad" gradientTransform="matrix(201.86598 0 0 -201.86598 306.718 2317.643)" gradientUnits="userSpaceOnUse" y2="0" x2="1" y1="0" x1="0"><stop offset="0" stop-color="#a62935"/><stop offset=".992" stop-color="#b3152c"/><stop offset="1" stop-color="#b3152c"/></linearGradient><linearGradient id="ah" spreadMethod="pad" gradientTransform="translate(-3.485 2500.392) scale(277.244)" gradientUnits="userSpaceOnUse" y2="0" x2="1" y1="0" x1="0"><stop offset="0" stop-color="#a62935"/><stop offset=".992" stop-color="#b3152c"/><stop offset="1" stop-color="#b3152c"/></linearGradient><linearGradient id="al" spreadMethod="pad" gradientTransform="matrix(254.2204 0 0 -254.2204 325.922 942.767)" gradientUnits="userSpaceOnUse" y2="0" x2="1" y1="0" x1="0"><stop offset="0" stop-color="#a62935"/><stop offset=".992" stop-color="#b3152c"/><stop offset="1" stop-color="#b3152c"/></linearGradient><linearGradient id="ao" spreadMethod="pad" gradientTransform="matrix(166.71484 0 0 -166.71484 413.427 873.084)" gradientUnits="userSpaceOnUse" y2="0" x2="1" y1="0" x1="0"><stop offset="0" stop-color="#a62935"/><stop offset=".992" stop-color="#b3152c"/><stop offset="1" stop-color="#b3152c"/></linearGradient><linearGradient id="ar" spreadMethod="pad" gradientTransform="matrix(346.13525 0 0 -346.13525 234.007 987.985)" gradientUnits="userSpaceOnUse" y2="0" x2="1" y1="0" x1="0"><stop offset="0" stop-color="#a62935"/><stop offset=".992" stop-color="#b3152c"/><stop offset="1" stop-color="#b3152c"/></linearGradient><linearGradient id="au" spreadMethod="pad" gradientTransform="matrix(274.22684 0 0 -274.22684 190.13 999.728)" gradientUnits="userSpaceOnUse" y2="0" x2="1" y1="0" x1="0"><stop offset="0" stop-color="#a62935"/><stop offset=".992" stop-color="#b3152c"/><stop offset="1" stop-color="#b3152c"/></linearGradient><linearGradient id="ax" spreadMethod="pad" gradientTransform="matrix(125.92137 0 0 -125.92137 214.434 1068.428)" gradientUnits="userSpaceOnUse" y2="0" x2="1" y1="0" x1="0"><stop offset="0" stop-color="#a62935"/><stop offset=".992" stop-color="#b3152c"/><stop offset="1" stop-color="#b3152c"/></linearGradient><linearGradient id="aA" spreadMethod="pad" gradientTransform="matrix(75.84516 0 0 -75.84516 306.228 2382.743)" gradientUnits="userSpaceOnUse" y2="0" x2="1" y1="0" x1="0"><stop offset="0" stop-color="#a62935"/><stop offset=".992" stop-color="#b3152c"/><stop offset="1" stop-color="#b3152c"/></linearGradient><linearGradient id="aC" spreadMethod="pad" gradientTransform="rotate(180 310.392 535.09) scale(59.4063)" gradientUnits="userSpaceOnUse" y2="0" x2="1" y1="0" x1="0"><stop offset="0" stop-color="#a62935"/><stop offset=".992" stop-color="#b3152c"/><stop offset="1" stop-color="#b3152c"/></linearGradient><linearGradient id="aE" spreadMethod="pad" gradientTransform="matrix(-59.8083 0 0 59.8083 1027.58 757.97)" gradientUnits="userSpaceOnUse" y2="0" x2="1" y1="0" x1="0"><stop offset="0" stop-color="#a62935"/><stop offset=".992" stop-color="#b3152c"/><stop offset="1" stop-color="#b3152c"/></linearGradient><linearGradient id="aG" spreadMethod="pad" gradientTransform="matrix(-59.8248 0 0 59.8248 1032.64 493.9)" gradientUnits="userSpaceOnUse" y2="0" x2="1" y1="0" x1="0"><stop offset="0" stop-color="#a62935"/><stop offset=".992" stop-color="#b3152c"/><stop offset="1" stop-color="#b3152c"/></linearGradient><linearGradient id="aH" spreadMethod="pad" gradientTransform="translate(-57.281 2800.59) scale(321.237)" gradientUnits="userSpaceOnUse" y2="0" x2="1" y1="0" x1="0"><stop offset="0" stop-color="#a62935"/><stop offset=".992" stop-color="#b3152c"/><stop offset="1" stop-color="#b3152c"/></linearGradient><linearGradient id="aI" spreadMethod="pad" gradientTransform="translate(0 2615.52) scale(284.883)" gradientUnits="userSpaceOnUse" y2="0" x2="1" y1="0" x1="0"><stop offset="0" stop-color="#a62935"/><stop offset=".992" stop-color="#b3152c"/><stop offset="1" stop-color="#b3152c"/></linearGradient><linearGradient id="aL" spreadMethod="pad" gradientTransform="rotate(180 516.32 215.17) scale(59.8248)" gradientUnits="userSpaceOnUse" y2="0" x2="1" y1="0" x1="0"><stop offset="0" stop-color="#a62935"/><stop offset=".992" stop-color="#b3152c"/><stop offset="1" stop-color="#b3152c"/></linearGradient><linearGradient id="aM" spreadMethod="pad" gradientTransform="translate(-310.071 2615.524) scale(310.071)" gradientUnits="userSpaceOnUse" y2="0" x2="1" y1="0" x1="0"><stop offset="0" stop-color="#a62935"/><stop offset=".992" stop-color="#b3152c"/><stop offset="1" stop-color="#b3152c"/></linearGradient><linearGradient id="aP" spreadMethod="pad" gradientTransform="matrix(-46.9441 0 0 46.9441 1034.43 1230.12)" gradientUnits="userSpaceOnUse" y2="0" x2="1" y1="0" x1="0"><stop offset="0" stop-color="#a62935"/><stop offset=".992" stop-color="#b3152c"/><stop offset="1" stop-color="#b3152c"/></linearGradient><linearGradient id="aQ" spreadMethod="pad" gradientTransform="translate(-7.995 2634.036) scale(16.7001)" gradientUnits="userSpaceOnUse" y2="0" x2="1" y1="0" x1="0"><stop offset="0" stop-color="#a62935"/><stop offset=".992" stop-color="#b3152c"/><stop offset="1" stop-color="#b3152c"/></linearGradient><linearGradient id="aR" spreadMethod="pad" gradientTransform="translate(-7.996 2652.462) scale(18.7413)" gradientUnits="userSpaceOnUse" y2="0" x2="1" y1="0" x1="0"><stop offset="0" stop-color="#a62935"/><stop offset=".992" stop-color="#b3152c"/><stop offset="1" stop-color="#b3152c"/></linearGradient><linearGradient id="aU" spreadMethod="pad" gradientTransform="scale(-67.0682) rotate(-.504 -2590.399 2196)" gradientUnits="userSpaceOnUse" y2="0" x2="1" y1="0" x1="0"><stop offset="0" stop-color="#a62935"/><stop offset=".992" stop-color="#b3152c"/><stop offset="1" stop-color="#b3152c"/></linearGradient><linearGradient id="aW" spreadMethod="pad" gradientTransform="matrix(-66.0567 .57353 .57353 66.0567 1301.39 1434.39)" gradientUnits="userSpaceOnUse" y2="0" x2="1" y1="0" x1="0"><stop offset="0" stop-color="#a62935"/><stop offset=".992" stop-color="#b3152c"/><stop offset="1" stop-color="#b3152c"/></linearGradient><linearGradient id="aY" spreadMethod="pad" gradientTransform="scale(-67.0682) rotate(-.504 -2580.435 2516.34)" gradientUnits="userSpaceOnUse" y2="0" x2="1" y1="0" x1="0"><stop offset="0" stop-color="#a62935"/><stop offset=".992" stop-color="#b3152c"/><stop offset="1" stop-color="#b3152c"/></linearGradient><linearGradient id="ba" spreadMethod="pad" gradientTransform="matrix(-66.0567 .57353 .57353 66.0567 1491.2 1441.33)" gradientUnits="userSpaceOnUse" y2="0" x2="1" y1="0" x1="0"><stop offset="0" stop-color="#a62935"/><stop offset=".992" stop-color="#b3152c"/><stop offset="1" stop-color="#b3152c"/></linearGradient><linearGradient id="bb" spreadMethod="pad" gradientTransform="translate(-.046 2615.418) scale(32.5286)" gradientUnits="userSpaceOnUse" y2="0" x2="1" y1="0" x1="0"><stop offset="0" stop-color="#a62935"/><stop offset=".992" stop-color="#b3152c"/><stop offset="1" stop-color="#b3152c"/></linearGradient><linearGradient id="bc" spreadMethod="pad" gradientTransform="translate(-.046 2615.418) scale(32.5286)" gradientUnits="userSpaceOnUse" y2="0" x2="1" y1="0" x1="0"><stop offset="0" stop-color="#a62935"/><stop offset=".992" stop-color="#b3152c"/><stop offset="1" stop-color="#b3152c"/></linearGradient><linearGradient id="bd" spreadMethod="pad" gradientTransform="translate(-228.488 2615.52) scale(228.488)" gradientUnits="userSpaceOnUse" y2="0" x2="1" y1="0" x1="0"><stop offset="0" stop-color="#a62935"/><stop offset=".992" stop-color="#b3152c"/><stop offset="1" stop-color="#b3152c"/></linearGradient><linearGradient id="be" spreadMethod="pad" gradientTransform="translate(0 2615.52) scale(34.3832)" gradientUnits="userSpaceOnUse" y2="0" x2="1" y1="0" x1="0"><stop offset="0" stop-color="#a62935"/><stop offset=".992" stop-color="#b3152c"/><stop offset="1" stop-color="#b3152c"/></linearGradient><clipPath id="a" clipPathUnits="userSpaceOnUse"><path d="M0 2615.515h1571.754V0H0z"/></clipPath><clipPath id="b" clipPathUnits="userSpaceOnUse"><path d="M826.14 1419h7v-209.6h-7z"/></clipPath><clipPath id="t" clipPathUnits="userSpaceOnUse"><path d="M0 2615.515h1571.754V0H0z"/></clipPath><clipPath id="u" clipPathUnits="userSpaceOnUse"><path d="M556.029 1269.98h59.808v-77.71h-59.808z"/></clipPath><clipPath id="w" clipPathUnits="userSpaceOnUse"><path d="M556.029 1413.29h59.808v-77.72h-59.808z"/></clipPath><clipPath id="C" clipPathUnits="userSpaceOnUse"><path d="M0 2615.515h1571.754V0H0z"/></clipPath><clipPath id="D" clipPathUnits="userSpaceOnUse"><path d="M577.84 444.524h81.551v-64.271H577.84z"/></clipPath><clipPath id="F" clipPathUnits="userSpaceOnUse"><path d="M967.719 1473.28h46.741v-54.25h-46.741z"/></clipPath><clipPath id="H" clipPathUnits="userSpaceOnUse"><path d="M650.902 444.524h81.551v-64.271h-81.551z"/></clipPath><clipPath id="L" clipPathUnits="userSpaceOnUse"><path d="M0 2615.515h1571.754V0H0z"/></clipPath><clipPath id="M" clipPathUnits="userSpaceOnUse"><path d="M544.243 1904.3h68.094v-66.9h-68.094z"/></clipPath><clipPath id="N" clipPathUnits="userSpaceOnUse"><path d="M612.337 1843.743l-6.874-6.338-61.219.569 68.093 66.331z"/></clipPath><clipPath id="P" clipPathUnits="userSpaceOnUse"><path d="M432.169 2014.29h179.916V1837.4H432.169z"/></clipPath><clipPath id="Q" clipPathUnits="userSpaceOnUse"><path d="M612.084 1953.731l-121.146-116.326-58.769.569 179.915 176.318z"/></clipPath><clipPath id="S" clipPathUnits="userSpaceOnUse"><path d="M315.913 2124.01h296.172v-286.04H315.913z"/></clipPath><clipPath id="T" clipPathUnits="userSpaceOnUse"><path d="M612.084 2063.45l-237.129-225.476h-59.042l296.171 286.038z"/></clipPath><clipPath id="V" clipPathUnits="userSpaceOnUse"><path d="M306.888 2243.98h304.959v-350.21H306.888z"/></clipPath><clipPath id="W" clipPathUnits="userSpaceOnUse"><path d="M611.847 2183.416l-304.619-289.649-.34 55.687 304.959 294.524z"/></clipPath><clipPath id="Y" clipPathUnits="userSpaceOnUse"><path d="M306.888 2356.38h307.061v-352.24H306.888z"/></clipPath><clipPath id="Z" clipPathUnits="userSpaceOnUse"><path d="M611.847 2293.785l-304.619-289.649-.34 55.687 307.062 296.555-2.103-35.962z"/></clipPath><clipPath id="ab" clipPathUnits="userSpaceOnUse"><path d="M306.228 2415.04h307.721v-298.57H306.228z"/></clipPath><clipPath id="ac" clipPathUnits="userSpaceOnUse"><path d="M613.95 2415.044L306.568 2116.47l-.34 55.687 246.624 242.887z"/></clipPath><clipPath id="ae" clipPathUnits="userSpaceOnUse"><path d="M306.718 2416.84h201.866v-198.4H306.718z"/></clipPath><clipPath id="af" clipPathUnits="userSpaceOnUse"><path d="M508.584 2416.842l-201.526-198.398-.339 55.686 140.768 142.712z"/></clipPath><clipPath id="ai" clipPathUnits="userSpaceOnUse"><path d="M0 2615.515h1571.754V0H0z"/></clipPath><clipPath id="aj" clipPathUnits="userSpaceOnUse"><path d="M325.922 1077.02h254.22V808.517h-254.22z"/></clipPath><clipPath id="ak" clipPathUnits="userSpaceOnUse"><path d="M580.142 1016.456L361.136 808.517l-35.214 22.808 254.22 245.693z"/></clipPath><clipPath id="am" clipPathUnits="userSpaceOnUse"><path d="M413.427 953.864h166.715v-161.56H413.427z"/></clipPath><clipPath id="an" clipPathUnits="userSpaceOnUse"><path d="M580.142 893.303L464.357 792.304h-50.93l166.715 161.56z"/></clipPath><clipPath id="ap" clipPathUnits="userSpaceOnUse"><path d="M234.007 1126.65h346.135V849.315H234.007z"/></clipPath><clipPath id="aq" clipPathUnits="userSpaceOnUse"><path d="M580.142 1126.655l-302.747-277.34-43.388 3.828 284.127 273.512h35.134z"/></clipPath><clipPath id="as" clipPathUnits="userSpaceOnUse"><path d="M190.13 1126.65h274.227V872.801H190.13z"/></clipPath><clipPath id="at" clipPathUnits="userSpaceOnUse"><path d="M464.357 1126.655L190.13 872.801l11.649 66.816 201.48 187.038z"/></clipPath><clipPath id="av" clipPathUnits="userSpaceOnUse"><path d="M214.434 1126.65h125.922V1010.2H214.434z"/></clipPath><clipPath id="aw" clipPathUnits="userSpaceOnUse"><path d="M340.356 1126.655l-125.922-116.454 11.649 66.817 53.304 49.637z"/></clipPath><clipPath id="ay" clipPathUnits="userSpaceOnUse"><path d="M306.228 2416.84h75.845v-68.2h-75.845z"/></clipPath><clipPath id="az" clipPathUnits="userSpaceOnUse"><path d="M382.074 2416.842l-75.846-68.197.17 66.399z"/></clipPath><clipPath id="aB" clipPathUnits="userSpaceOnUse"><path d="M561.377 1577.6h59.406v-64.52h-59.406z"/></clipPath><clipPath id="aD" clipPathUnits="userSpaceOnUse"><path d="M967.77 1894.96h59.81v-74.82h-59.81z"/></clipPath><clipPath id="aF" clipPathUnits="userSpaceOnUse"><path d="M972.817 2156.9h59.823v-70.56h-59.823z"/></clipPath><clipPath id="aJ" clipPathUnits="userSpaceOnUse"><path d="M0 2615.515h1571.754V0H0z"/></clipPath><clipPath id="aK" clipPathUnits="userSpaceOnUse"><path d="M972.817 2220.47h59.823v-70.57h-59.823z"/></clipPath><clipPath id="aN" clipPathUnits="userSpaceOnUse"><path d="M0 2615.515h1571.754V0H0z"/></clipPath><clipPath id="aO" clipPathUnits="userSpaceOnUse"><path d="M987.485 1412.44h46.945v-54.08h-46.945z"/></clipPath><clipPath id="aS" clipPathUnits="userSpaceOnUse"><path d="M0 2615.515h1571.754V0H0z"/></clipPath><clipPath id="aT" clipPathUnits="userSpaceOnUse"><path d="M1234.96 1134.18h67.81v-83.85h-67.81z"/></clipPath><clipPath id="aV" clipPathUnits="userSpaceOnUse"><path d="M1234.97 1223.06h66.09v-84.41h-66.09z"/></clipPath><clipPath id="aX" clipPathUnits="userSpaceOnUse"><path d="M1423.94 1140.88h67.8v-83.84h-67.8z"/></clipPath><clipPath id="aZ" clipPathUnits="userSpaceOnUse"><path d="M1424.78 1216.11h66.09v-84.4h-66.09z"/></clipPath></defs><g clip-path="url(#a)" transform="matrix(1.33333 0 0 -1.33333 0 3487.36)"><g clip-path="url(#b)" opacity=".4"><path d="M0 0v-209.601" fill="none" stroke="url(#c)" stroke-width="7" stroke-miterlimit="10" transform="translate(829.64 1419.004)"/></g></g><path d="M556.012 542.183H306.398V437.797h249.614z" fill="none" stroke="url(#d)" stroke-width="7" stroke-miterlimit="10" transform="matrix(1.33333 0 0 -1.33333 0 3487.36)"/><path d="M0 0v-104.386" fill="none" stroke="url(#e)" stroke-width="7" stroke-miterlimit="10" transform="matrix(1.33333 0 0 -1.33333 690.69 2764.45)"/><path d="M0 0v-104.386" fill="none" stroke="url(#f)" stroke-width="7" stroke-miterlimit="10" transform="matrix(1.33333 0 0 -1.33333 644.75 2764.45)"/><path d="M0 0v-104.386" fill="none" stroke="url(#g)" stroke-width="7" stroke-miterlimit="10" transform="matrix(1.33333 0 0 -1.33333 600.883 2764.45)"/><path d="M0 0v-104.386" fill="none" stroke="url(#h)" stroke-width="7" stroke-miterlimit="10" transform="matrix(1.33333 0 0 -1.33333 554.943 2764.45)"/><path d="M0 0v-104.386" fill="none" stroke="url(#i)" stroke-width="7" stroke-miterlimit="10" transform="matrix(1.33333 0 0 -1.33333 554.943 2764.45)"/><path d="M0 0v-104.386" fill="none" stroke="url(#j)" stroke-width="7" stroke-miterlimit="10" transform="matrix(1.33333 0 0 -1.33333 509.003 2764.45)"/><path d="M0 0l59.709-.241v-40.265h468.274L512.47 616.783l186.265 4.594V782.13H508.567l-4.584 194.222h-43.667l42.012 1001.296H-423.25V689.26l-69.806-.001-43.392-258.723 113.198-25.029V1.71L0 0" fill="none" stroke="url(#k)" stroke-width="16" stroke-miterlimit="10" transform="matrix(1.33333 0 0 -1.33333 972.864 2904.166)"/><path d="M0 0v-104.386" fill="none" stroke="url(#l)" stroke-width="7" stroke-miterlimit="10" transform="matrix(1.33333 0 0 -1.33333 465.136 2764.45)"/><path d="M0 0h-385.619v788.823H24.51l-4.893-157.455-42.868-40.423.016-132.484 36.067-45.458L8.186 263.44h-36.485v-70.911l34.122-32.907z" fill="none" stroke="url(#m)" stroke-width="7" stroke-miterlimit="10" transform="matrix(1.33333 0 0 -1.33333 1332.758 1316.668)"/><path d="M0 0h-273.744v711.319H32.195l1.613-228.944-49.249-34.811.175-57.641h47.461V58.675z" fill="none" stroke="url(#n)" stroke-width="7" stroke-miterlimit="10" transform="matrix(1.33333 0 0 -1.33333 773.523 1985.154)"/><path d="M0 0h-305.939" fill="none" stroke="url(#o)" stroke-width="7" stroke-miterlimit="10" transform="matrix(1.33333 0 0 -1.33333 816.45 1465.257)"/><path d="M0 0h-305.939" fill="none" stroke="url(#p)" stroke-width="7" stroke-miterlimit="10" transform="matrix(1.33333 0 0 -1.33333 816.45 1729.205)"/><path d="M0 0h34.384" fill="none" stroke="url(#q)" stroke-width="7" stroke-miterlimit="10" transform="matrix(1.33333 0 0 -1.33333 793.04 1701.927)"/><path d="M0 0h34.383" fill="none" stroke="url(#r)" stroke-width="7" stroke-miterlimit="10" transform="matrix(1.33333 0 0 -1.33333 742.53 1465.257)"/><path d="M0 0h34.384" fill="none" stroke="url(#s)" stroke-width="7" stroke-miterlimit="10" transform="matrix(1.33333 0 0 -1.33333 793.04 1892.998)"/><g clip-path="url(#t)" transform="matrix(1.33333 0 0 -1.33333 0 3487.36)"><g clip-path="url(#u)" opacity=".4"><path d="M0 0s-52.809-14.831-52.809-69.593H0z" fill="none" stroke="url(#v)" stroke-width="7" stroke-miterlimit="10" transform="translate(612.337 1265.364)"/></g><g><g clip-path="url(#w)" opacity=".4"><path d="M0 0s-52.809-14.832-52.809-69.593H0z" fill="none" stroke="url(#x)" stroke-width="7" stroke-miterlimit="10" transform="translate(612.337 1408.667)"/></g></g></g><path d="M0 0v-45.569" fill="none" stroke="url(#y)" stroke-width="7" stroke-miterlimit="10" transform="matrix(1.33333 0 0 -1.33333 775.12 2876.796)"/><path d="M0 0v-45.569" fill="none" stroke="url(#z)" stroke-width="7" stroke-miterlimit="10" transform="matrix(1.33333 0 0 -1.33333 972.763 2876.796)"/><path d="M0 0v241.185" fill="none" stroke="url(#A)" stroke-width="16" stroke-miterlimit="10" transform="matrix(1.33333 0 0 -1.33333 775.12 3227.877)"/><path d="M0 0v-241.185" fill="none" stroke="url(#B)" stroke-width="16" stroke-miterlimit="10" transform="matrix(1.33333 0 0 -1.33333 972.866 2906.297)"/><g clip-path="url(#C)" transform="matrix(1.33333 0 0 -1.33333 0 3487.36)"><g clip-path="url(#D)" opacity=".4"><path d="M0 0s-15.655-55.741-73.458-55.741v57.2z" fill="none" stroke="url(#E)" stroke-width="7" stroke-miterlimit="10" transform="translate(654.798 439.494)"/></g><g clip-path="url(#F)" opacity=".4"><path d="M0 0s39.02 6.139 39.02 46.503l-39.687.144z" fill="none" stroke="url(#G)" stroke-width="7" stroke-miterlimit="10" transform="translate(971.937 1423.12)"/></g><g><g clip-path="url(#H)" opacity=".4"><path d="M0 0s15.655-55.741 73.458-55.741v57.2z" fill="none" stroke="url(#I)" stroke-width="7" stroke-miterlimit="10" transform="translate(655.495 439.494)"/></g></g></g><path d="M0 0h393.805" fill="none" stroke="url(#J)" stroke-width="7" stroke-miterlimit="10" transform="matrix(1.33333 0 0 -1.33333 818.6 965.414)"/><path d="M0 0h401.943" fill="none" stroke="url(#K)" stroke-width="7" stroke-miterlimit="10" transform="matrix(1.33333 0 0 -1.33333 818.6 616.158)"/><text style="-inkscape-font-specification:Avenir-Light" transform="matrix(1.33333 0 0 1.33333 447.708 1908.702)" font-weight="300" font-size="47" font-family="Avenir Light" fill="#231f20"><tspan y="0" x="0 27.871 67.069 106.267 148.05 160.27 184.71001 209.14999">ROOM 120</tspan></text><text style="-inkscape-font-specification:Avenir-Light" transform="matrix(1.33333 0 0 1.33333 1095.142 1836.218)" font-weight="300" font-size="42" font-family="Avenir Light" fill="#231f20"><tspan y="0" x="0 37.338001 62.243999 94.919998">MEN </tspan><tspan y="-203.784" x="-36.372002 3.276 38.304001 75.641998 100.548 133.224">WOMEN</tspan></text><text style="-inkscape-font-specification:Avenir-Light" transform="matrix(1.33333 0 0 1.33333 1195.764 2650.833)" font-weight="300" font-size="47" font-family="Avenir Light" fill="#231f20"><tspan y="0" x="0 23.5 62.698002 92.307999 121.918">LOBBY</tspan><tspan y="306.017" x="-660.44397 -616.07599 -576.87799 -549.00702 -520.28998 -494.15799 -460.224 -421.026">WORKSHOP</tspan><tspan y="-757.499" x="-560.85101 -532.97998 -493.78201 -454.58401 -412.80099 -400.58099 -376.14099 -351.70099">ROOM 130</tspan><tspan y="-1047.254" x="-556.29199 -528.42102 -489.22299 -450.02499 -408.242 -396.022 -371.582 -347.142">ROOM 140</tspan></text><text style="-inkscape-font-specification:Avenir-Light" transform="matrix(1.33333 0 0 1.33333 879.206 1208.53)" font-weight="300" font-size="50.659" font-family="Avenir Light" fill="#231f20"><tspan y="0" x="0 30.04055 72.289825 114.53909 159.57458 172.74582 199.0883 225.43077">ROOM 150</tspan><tspan y="-264.691" x="-5.0152016 25.025349 67.27462 109.5239 154.55939 167.73062 194.07309 220.41557">ROOM 160</tspan><tspan y="-534.144" x="-18.490389 11.55016 53.799435 96.048706 141.0842 154.25543 180.59792 206.94038">ROOM 170</tspan></text><text style="-inkscape-font-specification:Avenir-Black" transform="matrix(1.33333 0 0 1.33333 844.345 420.368)" font-weight="700" font-size="53.892" font-family="Avenir Black" fill="#231f20"><tspan y="0" x="0 30.934065 61.86813 106.70636 141.62843 181.56248 223.49054">STORAGE</tspan><tspan y="271.023" x="9.3772259 40.311291 69.25135 103.20337 137.1554 171.10742 187.05948 230.98154">SLEEPING</tspan><tspan y="535.688" x="30.395144 59.335201 104.17343 144.10748 188.02954 229.9576">LOUNGE</tspan></text><text style="-inkscape-font-specification:Avenir-Black" transform="matrix(1.33333 0 0 1.33333 445.723 1179.368)" font-weight="700" font-size="50" font-family="Avenir Black" fill="#231f20"><tspan y="0" x="0 37.950001 75 109.25 145.35001 160.14999 200.89999">HACKING</tspan><tspan y="291.8" x="0 37.950001 75 109.25 145.35001 160.14999 200.89999">HACKING</tspan></text><text style="-inkscape-font-specification:Avenir-Black" transform="matrix(1.33333 0 0 1.33333 983.156 1777.525)" font-weight="700" font-size="45" font-family="Avenir Black" fill="#231f20"><tspan y="0" x="0 29.16 58.365002 84.195 118.35 147.50999 184.95 222.39">BATHROOM</tspan><tspan y="-212.625" x="4.9949999 34.154999 63.360001 89.190002 123.345 152.505 189.94501 227.38499">BATHROOM</tspan></text><text style="-inkscape-font-specification:Avenir-Black" transform="matrix(1.33333 0 0 1.33333 445.723 1840.182)" font-weight="700" font-size="50" font-family="Avenir Black" fill="#231f20"><tspan y="0" x="0 37.950001 75 109.25 145.35001 160.14999 200.89999">HACKING</tspan><tspan y="583.45" x="50.5 80.150002 121.75 163.35001">FOOD</tspan><tspan y="862.6" x="-120.55 -82.599998 -41 9 49.75 78.449997 102.55 139.60001 154.39999 186.8">DOWNSTAIRS</tspan><tspan y="556.6" x="517.09998 555.04999 592.09998 626.34998 662.45001 677.25 718 756.90002">HACKING </tspan><tspan y="100.9" x="403.89999 438.14999 469.64999 502.04999 533.54999 580.75 622.34998 663.09998 695.5">CEREMONY</tspan></text><g clip-path="url(#L)" transform="matrix(1.33333 0 0 -1.33333 0 3487.36)"><g clip-path="url(#M)"><g clip-path="url(#N)" opacity=".72"><path d="M612.337 1843.743l-6.874-6.338-61.219.569 68.093 66.331z" fill="url(#O)"/></g></g><g clip-path="url(#P)"><g clip-path="url(#Q)" opacity=".72"><path d="M612.084 1953.731l-121.146-116.326-58.769.569 179.915 176.318z" fill="url(#R)"/></g></g><g clip-path="url(#S)"><g clip-path="url(#T)" opacity=".72"><path d="M612.084 2063.45l-237.129-225.476h-59.042l296.171 286.038z" fill="url(#U)"/></g></g><g clip-path="url(#V)"><g clip-path="url(#W)" opacity=".72"><path d="M611.847 2183.416l-304.619-289.649-.34 55.687 304.959 294.524z" fill="url(#X)"/></g></g><g><g clip-path="url(#Y)"><g clip-path="url(#Z)" opacity=".72"><path d="M611.847 2293.785l-304.619-289.649-.34 55.687 307.062 296.555-2.103-35.962z" fill="url(#aa)"/></g></g></g><g><g clip-path="url(#ab)"><g clip-path="url(#ac)" opacity=".72"><path d="M613.95 2415.044L306.568 2116.47l-.34 55.687 246.624 242.887z" fill="url(#ad)"/></g></g></g><g><g clip-path="url(#ae)"><g clip-path="url(#af)" opacity=".72"><path d="M508.584 2416.842l-201.526-198.398-.339 55.686 140.768 142.712z" fill="url(#ag)"/></g></g></g></g><path d="M0 0l74.44-52.048h80.034L270.259 48.951v233.352H-3.485" fill="none" stroke="url(#ah)" stroke-width="7" stroke-miterlimit="10" transform="matrix(1.33333 0 0 -1.33333 413.177 2361.558)"/><g clip-path="url(#ai)" transform="matrix(1.33333 0 0 -1.33333 0 3487.36)"><g clip-path="url(#aj)"><g clip-path="url(#ak)" opacity=".72"><path d="M580.142 1016.456L361.136 808.517l-35.214 22.808 254.22 245.693z" fill="url(#al)"/></g></g><g clip-path="url(#am)"><g clip-path="url(#an)" opacity=".72"><path d="M580.142 893.303L464.357 792.304h-50.93l166.715 161.56z" fill="url(#ao)"/></g></g><g clip-path="url(#ap)"><g clip-path="url(#aq)" opacity=".72"><path d="M580.142 1126.655l-302.747-277.34-43.388 3.828 284.127 273.512h35.134z" fill="url(#ar)"/></g></g><g clip-path="url(#as)"><g clip-path="url(#at)" opacity=".72"><path d="M464.357 1126.655L190.13 872.801l11.649 66.816 201.48 187.038z" fill="url(#au)"/></g></g><g clip-path="url(#av)"><g clip-path="url(#aw)" opacity=".72"><path d="M340.356 1126.655l-125.922-116.454 11.649 66.817 53.304 49.637z" fill="url(#ax)"/></g></g><g><g clip-path="url(#ay)"><g clip-path="url(#az)" opacity=".72"><path d="M382.074 2416.842l-75.846-68.197.17 66.399z" fill="url(#aA)"/></g></g></g><g><g clip-path="url(#aB)" opacity=".4"><path d="M0 0c11.48-4.722 47.712-20.193 47.712-57.262H-1.297a3.397 3.397 0 00-3.397 3.397v50.724C-4.694-.719-2.239.921 0 0z" fill="none" stroke="url(#aC)" stroke-width="7" stroke-miterlimit="10" transform="translate(569.57 1573.84)"/></g></g><g><g clip-path="url(#aD)" opacity=".4"><path d="M0 0s52.809 12.159 52.809 66.921H0z" fill="none" stroke="url(#aE)" stroke-width="7" stroke-miterlimit="10" transform="translate(971.27 1824.538)"/></g></g><g><g clip-path="url(#aF)" opacity=".4"><path d="M0 0s52.823 8.218 52.823 62.979H.016z" fill="none" stroke="url(#aG)" stroke-width="7" stroke-miterlimit="10" transform="translate(976.318 2090.422)"/></g></g></g><path d="M0 0l-53.781-61.709v-308.427h241.454l72.783 47.208v94.495h-42.993l.613 67.898h-19.26l-.258 50.763h56.777v56.079L219.739 0z" fill="none" stroke="url(#aH)" stroke-width="7" stroke-miterlimit="10" transform="matrix(1.33333 0 0 -1.33333 1030.283 1381.308)"/><path d="M0 0h284.882" fill="none" stroke="url(#aI)" stroke-width="16" stroke-miterlimit="10" transform="matrix(1.33333 0 0 -1.33333 408.531 2764.45)"/><g clip-path="url(#aJ)" transform="matrix(1.33333 0 0 -1.33333 0 3487.36)"><g clip-path="url(#aK)" opacity=".4"><path d="M0 0s52.823-8.218 52.823-62.979H.016z" fill="none" stroke="url(#aL)" stroke-width="7" stroke-miterlimit="10" transform="translate(976.318 2216.381)"/></g></g><path d="M0 0h-310.071" fill="none" stroke="url(#aM)" stroke-width="7" stroke-miterlimit="10" transform="matrix(1.33333 0 0 -1.33333 1372.003 1595.354)"/><g clip-path="url(#aN)" transform="matrix(1.33333 0 0 -1.33333 0 3487.36)"><g clip-path="url(#aO)" opacity=".4"><path d="M0 0s39.944 6.138 39.944 46.502H0z" fill="none" stroke="url(#aP)" stroke-width="7" stroke-miterlimit="10" transform="translate(990.985 1362.439)"/></g></g><path d="M0 0l.702-37.026" fill="none" stroke="url(#aQ)" stroke-width="16" stroke-miterlimit="10" transform="matrix(1.33333 0 0 -1.33333 1650.954 1861.326)"/><path d="M0 0l2.752-73.88" fill="none" stroke="url(#aR)" stroke-width="16" stroke-miterlimit="10" transform="matrix(1.33333 0 0 -1.33333 1653.474 2021.384)"/><g clip-path="url(#aS)" transform="matrix(1.33333 0 0 -1.33333 0 3487.36)"><g clip-path="url(#aT)" opacity=".4"><path d="M0 0s60.146-15.638 60.67-75.245l-58.986-.52z" fill="none" stroke="url(#aU)" stroke-width="7" stroke-miterlimit="10" transform="translate(1238.567 1129.623)"/></g><g clip-path="url(#aV)" opacity=".4"><path d="M0 0s57.342 16.643 56.824 76.251l-58.986-.513z" fill="none" stroke="url(#aW)" stroke-width="7" stroke-miterlimit="10" transform="translate(1240.729 1143.275)"/></g><g><g clip-path="url(#aX)" opacity=".4"><path d="M0 0s60.146-15.638 60.671-75.245l-58.987-.52z" fill="none" stroke="url(#aY)" stroke-width="7" stroke-miterlimit="10" transform="translate(1427.543 1136.331)"/></g></g><g><g clip-path="url(#aZ)" opacity=".4"><path d="M0 0s57.342 16.643 56.824 76.251l-58.987-.513z" fill="none" stroke="url(#ba)" stroke-width="7" stroke-miterlimit="10" transform="translate(1430.546 1136.331)"/></g></g></g><path d="M0 0l32.428.202" fill="none" stroke="url(#bb)" stroke-width="16" stroke-miterlimit="10" transform="matrix(1.33333 0 0 -1.33333 1896.675 2075.856)"/><path d="M0 0l32.428.203" fill="none" stroke="url(#bc)" stroke-width="16" stroke-miterlimit="10" transform="matrix(1.33333 0 0 -1.33333 1896.675 1861.522)"/><text style="-inkscape-font-specification:Avenir-Black" transform="matrix(1.33333 0 0 1.33333 782.811 144.686)" font-weight="700" font-size="53.892" font-family="Avenir Black" fill="#231f20"><tspan y="0" x="0 41.928055 76.850136 121.68836 161.62241 205.54446 246.44858 262.40063 294.35864 323.29871 368.13693 412.97516">GROUND FLOOR</tspan></text><path d="M0 0h-228.488" fill="none" stroke="url(#bd)" stroke-width="7" stroke-miterlimit="10" transform="matrix(1.33333 0 0 -1.33333 773.523 2834.04)"/><path d="M0 0h34.383" fill="none" stroke="url(#be)" stroke-width="7" stroke-miterlimit="10" transform="matrix(1.33333 0 0 -1.33333 1298.563 1608.772)"/></svg>
