<svg xmlns="http://www.w3.org/2000/svg" viewBox="0 0 1909.333 3459.76">
<!-- <svg xmlns="http://www.w3.org/2000/svg" height="3459.76" width="1909.333"> -->
  <defs><clipPath id="a" clipPathUnits="userSpaceOnUse"><path d="M0 2594.82h1432V0H0z"/></clipPath><clipPath id="b" clipPathUnits="userSpaceOnUse"><path d="M891.225 589.754h330.995v-307.5H891.225z"/></clipPath><clipPath id="c" clipPathUnits="userSpaceOnUse"><path d="M1222.221 531.608L951.838 282.254l-60.613.62 164.023 155.998 39.59 13.001v23.851l119.702 114.029z"/></clipPath><clipPath id="r" clipPathUnits="userSpaceOnUse"><path d="M0 2594.82h1432V0H0z"/></clipPath><clipPath id="s" clipPathUnits="userSpaceOnUse"><path d="M293.003 959.745h254.22V691.244h-254.22z"/></clipPath><clipPath id="t" clipPathUnits="userSpaceOnUse"><path d="M547.223 899.183L328.217 691.244l-35.214 22.808 254.22 245.693z"/></clipPath><clipPath id="v" clipPathUnits="userSpaceOnUse"><path d="M380.508 836.592h166.715V675.031H380.508z"/></clipPath><clipPath id="w" clipPathUnits="userSpaceOnUse"><path d="M547.223 776.03L431.438 675.032h-50.93l166.715 161.559z"/></clipPath><clipPath id="y" clipPathUnits="userSpaceOnUse"><path d="M201.088 1156.61h437.064V732.042H201.088z"/></clipPath><clipPath id="z" clipPathUnits="userSpaceOnUse"><path d="M547.223 1009.382l-302.747-277.34-43.388 3.828 437.064 420.735v-44.611z"/></clipPath><clipPath id="B" clipPathUnits="userSpaceOnUse"><path d="M157.211 1260.71h483.865V755.528H157.211z"/></clipPath><clipPath id="C" clipPathUnits="userSpaceOnUse"><path d="M639.929 1202.384L157.211 755.529l11.648 66.815 472.217 438.365z"/></clipPath><clipPath id="E" clipPathUnits="userSpaceOnUse"><path d="M276.859 1493.75h368.815v-398.52H276.859z"/></clipPath><clipPath id="F" clipPathUnits="userSpaceOnUse"><path d="M644.527 1435.424l-367.668-340.195v56.314l368.815 342.207z"/></clipPath><clipPath id="H" clipPathUnits="userSpaceOnUse"><path d="M276.859 1611.18h371.625v-400.24H276.859z"/></clipPath><clipPath id="I" clipPathUnits="userSpaceOnUse"><path d="M647.338 1552.853L276.859 1210.94v56.314l371.625 343.925z"/></clipPath><clipPath id="K" clipPathUnits="userSpaceOnUse"><path d="M276.859 1726.42h368.815V1327.9H276.859z"/></clipPath><clipPath id="L" clipPathUnits="userSpaceOnUse"><path d="M644.527 1668.09l-367.668-340.195v56.314l368.815 342.207z"/></clipPath><clipPath id="N" clipPathUnits="userSpaceOnUse"><path d="M276.859 1843.84h371.625v-400.23H276.859z"/></clipPath><clipPath id="O" clipPathUnits="userSpaceOnUse"><path d="M647.338 1785.519l-370.479-341.913v56.314l371.625 343.925z"/></clipPath><clipPath id="Q" clipPathUnits="userSpaceOnUse"><path d="M276.859 1973.09h379.555V1565.9H276.859z"/></clipPath><clipPath id="R" clipPathUnits="userSpaceOnUse"><path d="M655.268 1914.767l-378.409-348.872v56.314l379.556 350.884z"/></clipPath><clipPath id="T" clipPathUnits="userSpaceOnUse"><path d="M276.859 2089.92h380.129v-408.31H276.859z"/></clipPath><clipPath id="U" clipPathUnits="userSpaceOnUse"><path d="M655.841 2031.594l-378.982-349.988v56.314l380.129 352z"/></clipPath><clipPath id="W" clipPathUnits="userSpaceOnUse"><path d="M276.859 2224.97h385.239V1811.9H276.859z"/></clipPath><clipPath id="X" clipPathUnits="userSpaceOnUse"><path d="M660.951 2166.643l-384.092-354.748v56.314l385.239 356.76z"/></clipPath><clipPath id="Z" clipPathUnits="userSpaceOnUse"><path d="M276.859 2301.03h384.665v-373.42H276.859z"/></clipPath><clipPath id="aa" clipPathUnits="userSpaceOnUse"><path d="M661.156 2282.271l-384.297-354.665v56.314l342.649 317.108h42.016z"/></clipPath><clipPath id="ac" clipPathUnits="userSpaceOnUse"><path d="M276.859 2301.03h278.808v-257.98H276.859z"/></clipPath><clipPath id="ad" clipPathUnits="userSpaceOnUse"><path d="M555.667 2301.028l-278.808-257.975v56.315l217.34 201.66z"/></clipPath><clipPath id="af" clipPathUnits="userSpaceOnUse"><path d="M276.859 2301.03h154.15v-142.27h-154.15z"/></clipPath><clipPath id="ag" clipPathUnits="userSpaceOnUse"><path d="M431.009 2301.028l-154.15-142.264v56.315l92.872 85.949z"/></clipPath><clipPath id="ai" clipPathUnits="userSpaceOnUse"><path d="M767.024 1527.34h405.366v-432.11H767.024z"/></clipPath><clipPath id="aj" clipPathUnits="userSpaceOnUse"><path d="M1171.239 1469.016l-404.215-373.787v56.314l405.361 375.799z"/></clipPath><clipPath id="al" clipPathUnits="userSpaceOnUse"><path d="M767.024 1640.34h404.786v-429.4H767.024z"/></clipPath><clipPath id="am" clipPathUnits="userSpaceOnUse"><path d="M1170.666 1582.016L767.024 1210.94v56.314l404.788 373.088z"/></clipPath><clipPath id="ao" clipPathUnits="userSpaceOnUse"><path d="M767.024 1768.4h415.026v-440.5H767.024z"/></clipPath><clipPath id="ap" clipPathUnits="userSpaceOnUse"><path d="M1180.901 1710.076l-413.877-382.181v56.314l415.024 384.193z"/></clipPath><clipPath id="ar" clipPathUnits="userSpaceOnUse"><path d="M767.024 1883.02h415.026v-439.41H767.024z"/></clipPath><clipPath id="as" clipPathUnits="userSpaceOnUse"><path d="M1180.901 1824.697l-413.877-381.091v56.314l415.024 383.103z"/></clipPath><clipPath id="au" clipPathUnits="userSpaceOnUse"><path d="M767.024 2011.6h422.696v-445.7H767.024z"/></clipPath><clipPath id="av" clipPathUnits="userSpaceOnUse"><path d="M1188.578 1953.279l-421.554-387.384v56.314l422.7 389.396z"/></clipPath><clipPath id="ax" clipPathUnits="userSpaceOnUse"><path d="M767.024 2136.99h431.586v-455.38H767.024z"/></clipPath><clipPath id="ay" clipPathUnits="userSpaceOnUse"><path d="M1197.467 2078.663l-430.443-397.057v56.314l431.59 399.069z"/></clipPath><clipPath id="aA" clipPathUnits="userSpaceOnUse"><path d="M767.024 2266.85h431.016V1811.9H767.024z"/></clipPath><clipPath id="aB" clipPathUnits="userSpaceOnUse"><path d="M1196.894 2208.525l-429.87-396.63v56.314l431.017 398.642z"/></clipPath><clipPath id="aD" clipPathUnits="userSpaceOnUse"><path d="M767.024 2301.03h404.616v-373.42H767.024z"/></clipPath><clipPath id="aE" clipPathUnits="userSpaceOnUse"><path d="M1171.644 2301.028l-404.62-373.422v56.314l342.648 317.108z"/></clipPath><clipPath id="aG" clipPathUnits="userSpaceOnUse"><path d="M767.024 2301.03h278.806v-257.98H767.024z"/></clipPath><clipPath id="aH" clipPathUnits="userSpaceOnUse"><path d="M1045.832 2301.028l-278.808-257.975v56.315l217.34 201.66z"/></clipPath><clipPath id="aJ" clipPathUnits="userSpaceOnUse"><path d="M767.024 2301.03h154.15v-142.27h-154.15z"/></clipPath><clipPath id="aK" clipPathUnits="userSpaceOnUse"><path d="M921.174 2301.028l-154.15-142.264v56.315l92.872 85.949z"/></clipPath><clipPath id="aM" clipPathUnits="userSpaceOnUse"><path d="M181.515 1376.85h459.561V892.928H181.515z"/></clipPath><clipPath id="aN" clipPathUnits="userSpaceOnUse"><path d="M638.152 1315.232L181.516 892.928l11.648 66.817 56.801 52.894h26.894v25.044l364.217 339.167z"/></clipPath><clipPath id="aQ" clipPathUnits="userSpaceOnUse"><path d="M0 2594.82h1432V0H0z"/></clipPath><clipPath id="aT" clipPathUnits="userSpaceOnUse"><path d="M0 2594.82h1432V0H0z"/></clipPath><clipPath id="aU" clipPathUnits="userSpaceOnUse"><path d="M705.664 421.157h43.586v-56.334h-43.586z"/></clipPath><clipPath id="aW" clipPathUnits="userSpaceOnUse"><path d="M763.524 421.157h43.587v-56.334h-43.587z"/></clipPath><clipPath id="aY" clipPathUnits="userSpaceOnUse"><path d="M705.664 874.212h43.586v-56.334h-43.586z"/></clipPath><clipPath id="ba" clipPathUnits="userSpaceOnUse"><path d="M763.524 874.212h43.587v-56.334h-43.587z"/></clipPath><clipPath id="bf" clipPathUnits="userSpaceOnUse"><path d="M940.426 1088.24H1210V820.076H940.426z"/></clipPath><clipPath id="bg" clipPathUnits="userSpaceOnUse"><path d="M1207.826 1028.967L981.93 820.077l-41.504 18.255 269.571 249.912z"/></clipPath><clipPath id="bi" clipPathUnits="userSpaceOnUse"><path d="M1031.22 970.667h182.23V778.352h-182.23z"/></clipPath><clipPath id="bj" clipPathUnits="userSpaceOnUse"><path d="M1211.283 911.391l-138.557-133.039-41.504 18.256 182.232 174.059z"/></clipPath><clipPath id="bl" clipPathUnits="userSpaceOnUse"><path d="M1094.84 837.628h119.7V665.492h-119.7z"/></clipPath><clipPath id="bm" clipPathUnits="userSpaceOnUse"><path d="M1212.368 778.352l-117.53-112.86v58.107l119.702 114.029z"/></clipPath><clipPath id="bo" clipPathUnits="userSpaceOnUse"><path d="M1094.84 713.628h119.7V541.492h-119.7z"/></clipPath><clipPath id="bp" clipPathUnits="userSpaceOnUse"><path d="M1212.368 654.352l-117.53-112.86v58.107l119.702 114.029z"/></clipPath><clipPath id="br" clipPathUnits="userSpaceOnUse"><path d="M759.818 395.115h178.184V282.254H759.818z"/></clipPath><clipPath id="bs" clipPathUnits="userSpaceOnUse"><path d="M938.002 395.115l-117.53-112.861-60.654.62 90.006 85.449h23.952z"/></clipPath><clipPath id="bu" clipPathUnits="userSpaceOnUse"><path d="M1027.63 471.091h198.23V282.254h-198.23z"/></clipPath><clipPath id="bv" clipPathUnits="userSpaceOnUse"><path d="M1223.687 411.815l-134.921-129.561h-61.138l198.23 188.837z"/></clipPath><clipPath id="bx" clipPathUnits="userSpaceOnUse"><path d="M1152.82 354.375h74.12v-71.501h-74.12z"/></clipPath><clipPath id="by" clipPathUnits="userSpaceOnUse"><path d="M1224.773 295.099l-10.817-12.225h-61.137l74.125 71.501z"/></clipPath><clipPath id="bA" clipPathUnits="userSpaceOnUse"><path d="M843.231 1210.94h369.139V859.476H843.231z"/></clipPath><clipPath id="bB" clipPathUnits="userSpaceOnUse"><path d="M1211.222 1152.614L892.358 859.476l-25.545 11.236h-23.582l369.137 340.228z"/></clipPath><clipPath id="bD" clipPathUnits="userSpaceOnUse"><path d="M767.024 1301.02h437.886V870.712H767.024z"/></clipPath><clipPath id="bE" clipPathUnits="userSpaceOnUse"><path d="M1204.915 1264.868L778.069 870.712h-11.045v46.116l415.024 384.192 22.044-1.289z"/></clipPath><clipPath id="bG" clipPathUnits="userSpaceOnUse"><path d="M767.024 1402.02h398.986V979.962H767.024z"/></clipPath><clipPath id="bH" clipPathUnits="userSpaceOnUse"><path d="M1164.861 1343.69L767.024 979.961v56.316l398.983 365.739z"/></clipPath><clipPath id="bJ" clipPathUnits="userSpaceOnUse"><path d="M727.457 368.835h39.567v-40.287h-39.567z"/></clipPath><clipPath id="bK" clipPathUnits="userSpaceOnUse"><path d="M727.457 328.548v40.287l39.567-.512z"/></clipPath><linearGradient id="d" spreadMethod="pad" gradientTransform="matrix(330.99619 0 0 -330.99619 891.225 436.004)" gradientUnits="userSpaceOnUse" y2="0" x2="1" y1="0" x1="0"><stop offset="0" stop-color="#a62935"/><stop offset=".992" stop-color="#b3152c"/><stop offset="1" stop-color="#b3152c"/></linearGradient><linearGradient id="e" spreadMethod="pad" gradientTransform="translate(0 2594.82) scale(284.883)" gradientUnits="userSpaceOnUse" y2="0" x2="1" y1="0" x1="0"><stop offset="0" stop-color="#a62935"/><stop offset=".992" stop-color="#b3152c"/><stop offset="1" stop-color="#b3152c"/></linearGradient><linearGradient id="f" spreadMethod="pad" gradientTransform="translate(-545.595 1626.25) scale(1081.77)" gradientUnits="userSpaceOnUse" y2="0" x2="1" y1="0" x1="0"><stop offset="0" stop-color="#a62935"/><stop offset=".992" stop-color="#b3152c"/><stop offset="1" stop-color="#b3152c"/></linearGradient><linearGradient id="g" spreadMethod="pad" gradientTransform="translate(-426.746 2537.46) scale(256.614)" gradientUnits="userSpaceOnUse" y2="0" x2="1" y1="0" x1="0"><stop offset="0" stop-color="#a62935"/><stop offset=".992" stop-color="#b3152c"/><stop offset="1" stop-color="#b3152c"/></linearGradient><linearGradient id="h" spreadMethod="pad" gradientTransform="translate(-292.882 2649.544) scale(292.883)" gradientUnits="userSpaceOnUse" y2="0" x2="1" y1="0" x1="0"><stop offset="0" stop-color="#a62935"/><stop offset=".992" stop-color="#b3152c"/><stop offset="1" stop-color="#b3152c"/></linearGradient><linearGradient id="i" spreadMethod="pad" gradientTransform="matrix(7 0 0 7 -3.5 2647.012)" gradientUnits="userSpaceOnUse" y2="0" x2="1" y1="0" x1="0"><stop offset="0" stop-color="#a62935"/><stop offset=".992" stop-color="#b3152c"/><stop offset="1" stop-color="#b3152c"/></linearGradient><linearGradient id="j" spreadMethod="pad" gradientTransform="matrix(7 0 0 7 -3.5 2647.012)" gradientUnits="userSpaceOnUse" y2="0" x2="1" y1="0" x1="0"><stop offset="0" stop-color="#a62935"/><stop offset=".992" stop-color="#b3152c"/><stop offset="1" stop-color="#b3152c"/></linearGradient><linearGradient id="k" spreadMethod="pad" gradientTransform="matrix(7 0 0 7 -3.5 2647.012)" gradientUnits="userSpaceOnUse" y2="0" x2="1" y1="0" x1="0"><stop offset="0" stop-color="#a62935"/><stop offset=".992" stop-color="#b3152c"/><stop offset="1" stop-color="#b3152c"/></linearGradient><linearGradient id="l" spreadMethod="pad" gradientTransform="matrix(7 0 0 7 -3.5 2647.012)" gradientUnits="userSpaceOnUse" y2="0" x2="1" y1="0" x1="0"><stop offset="0" stop-color="#a62935"/><stop offset=".992" stop-color="#b3152c"/><stop offset="1" stop-color="#b3152c"/></linearGradient><linearGradient id="m" spreadMethod="pad" gradientTransform="matrix(7 0 0 7 -3.5 2647.012)" gradientUnits="userSpaceOnUse" y2="0" x2="1" y1="0" x1="0"><stop offset="0" stop-color="#a62935"/><stop offset=".992" stop-color="#b3152c"/><stop offset="1" stop-color="#b3152c"/></linearGradient><linearGradient id="n" spreadMethod="pad" gradientTransform="matrix(7 0 0 7 -3.5 2647.012)" gradientUnits="userSpaceOnUse" y2="0" x2="1" y1="0" x1="0"><stop offset="0" stop-color="#a62935"/><stop offset=".992" stop-color="#b3152c"/><stop offset="1" stop-color="#b3152c"/></linearGradient><linearGradient id="o" spreadMethod="pad" gradientTransform="matrix(7 0 0 7 -3.5 2647.012)" gradientUnits="userSpaceOnUse" y2="0" x2="1" y1="0" x1="0"><stop offset="0" stop-color="#a62935"/><stop offset=".992" stop-color="#b3152c"/><stop offset="1" stop-color="#b3152c"/></linearGradient><linearGradient id="p" spreadMethod="pad" gradientTransform="translate(0 2594.82) scale(284.883)" gradientUnits="userSpaceOnUse" y2="0" x2="1" y1="0" x1="0"><stop offset="0" stop-color="#a62935"/><stop offset=".992" stop-color="#b3152c"/><stop offset="1" stop-color="#b3152c"/></linearGradient><linearGradient id="q" spreadMethod="pad" gradientTransform="translate(-2.292 1835.829) scale(390.851)" gradientUnits="userSpaceOnUse" y2="0" x2="1" y1="0" x1="0"><stop offset="0" stop-color="#a62935"/><stop offset=".992" stop-color="#b3152c"/><stop offset="1" stop-color="#b3152c"/></linearGradient><linearGradient id="u" spreadMethod="pad" gradientTransform="matrix(254.2204 0 0 -254.2204 293.003 825.494)" gradientUnits="userSpaceOnUse" y2="0" x2="1" y1="0" x1="0"><stop offset="0" stop-color="#a62935"/><stop offset=".992" stop-color="#b3152c"/><stop offset="1" stop-color="#b3152c"/></linearGradient><linearGradient id="x" spreadMethod="pad" gradientTransform="matrix(166.71484 0 0 -166.71484 380.508 755.812)" gradientUnits="userSpaceOnUse" y2="0" x2="1" y1="0" x1="0"><stop offset="0" stop-color="#a62935"/><stop offset=".992" stop-color="#b3152c"/><stop offset="1" stop-color="#b3152c"/></linearGradient><linearGradient id="A" spreadMethod="pad" gradientTransform="matrix(437.06439 0 0 -437.06439 201.088 944.324)" gradientUnits="userSpaceOnUse" y2="0" x2="1" y1="0" x1="0"><stop offset="0" stop-color="#a62935"/><stop offset=".992" stop-color="#b3152c"/><stop offset="1" stop-color="#b3152c"/></linearGradient><linearGradient id="D" spreadMethod="pad" gradientTransform="matrix(483.86459 0 0 -483.86459 157.211 1008.12)" gradientUnits="userSpaceOnUse" y2="0" x2="1" y1="0" x1="0"><stop offset="0" stop-color="#a62935"/><stop offset=".992" stop-color="#b3152c"/><stop offset="1" stop-color="#b3152c"/></linearGradient><linearGradient id="G" spreadMethod="pad" gradientTransform="matrix(368.81445 0 0 -368.81445 276.86 1294.49)" gradientUnits="userSpaceOnUse" y2="0" x2="1" y1="0" x1="0"><stop offset="0" stop-color="#a62935"/><stop offset=".992" stop-color="#b3152c"/><stop offset="1" stop-color="#b3152c"/></linearGradient><linearGradient id="J" spreadMethod="pad" gradientTransform="matrix(371.62506 0 0 -371.62506 276.86 1411.06)" gradientUnits="userSpaceOnUse" y2="0" x2="1" y1="0" x1="0"><stop offset="0" stop-color="#a62935"/><stop offset=".992" stop-color="#b3152c"/><stop offset="1" stop-color="#b3152c"/></linearGradient><linearGradient id="M" spreadMethod="pad" gradientTransform="matrix(368.81445 0 0 -368.81445 276.86 1527.156)" gradientUnits="userSpaceOnUse" y2="0" x2="1" y1="0" x1="0"><stop offset="0" stop-color="#a62935"/><stop offset=".992" stop-color="#b3152c"/><stop offset="1" stop-color="#b3152c"/></linearGradient><linearGradient id="P" spreadMethod="pad" gradientTransform="matrix(371.62506 0 0 -371.62506 276.86 1643.726)" gradientUnits="userSpaceOnUse" y2="0" x2="1" y1="0" x1="0"><stop offset="0" stop-color="#a62935"/><stop offset=".992" stop-color="#b3152c"/><stop offset="1" stop-color="#b3152c"/></linearGradient><linearGradient id="S" spreadMethod="pad" gradientTransform="matrix(379.55511 0 0 -379.55511 276.86 1769.494)" gradientUnits="userSpaceOnUse" y2="0" x2="1" y1="0" x1="0"><stop offset="0" stop-color="#a62935"/><stop offset=".992" stop-color="#b3152c"/><stop offset="1" stop-color="#b3152c"/></linearGradient><linearGradient id="V" spreadMethod="pad" gradientTransform="matrix(380.12833 0 0 -380.12833 276.86 1885.763)" gradientUnits="userSpaceOnUse" y2="0" x2="1" y1="0" x1="0"><stop offset="0" stop-color="#a62935"/><stop offset=".992" stop-color="#b3152c"/><stop offset="1" stop-color="#b3152c"/></linearGradient><linearGradient id="Y" spreadMethod="pad" gradientTransform="matrix(385.23837 0 0 -385.23837 276.86 2018.432)" gradientUnits="userSpaceOnUse" y2="0" x2="1" y1="0" x1="0"><stop offset="0" stop-color="#a62935"/><stop offset=".992" stop-color="#b3152c"/><stop offset="1" stop-color="#b3152c"/></linearGradient><linearGradient id="ab" spreadMethod="pad" gradientTransform="matrix(384.66513 0 0 -384.66513 276.86 2114.317)" gradientUnits="userSpaceOnUse" y2="0" x2="1" y1="0" x1="0"><stop offset="0" stop-color="#a62935"/><stop offset=".992" stop-color="#b3152c"/><stop offset="1" stop-color="#b3152c"/></linearGradient><linearGradient id="ae" spreadMethod="pad" gradientTransform="matrix(278.80786 0 0 -278.80786 276.86 2172.04)" gradientUnits="userSpaceOnUse" y2="0" x2="1" y1="0" x1="0"><stop offset="0" stop-color="#a62935"/><stop offset=".992" stop-color="#b3152c"/><stop offset="1" stop-color="#b3152c"/></linearGradient><linearGradient id="ah" spreadMethod="pad" gradientTransform="matrix(154.14967 0 0 -154.14967 276.86 2229.896)" gradientUnits="userSpaceOnUse" y2="0" x2="1" y1="0" x1="0"><stop offset="0" stop-color="#a62935"/><stop offset=".992" stop-color="#b3152c"/><stop offset="1" stop-color="#b3152c"/></linearGradient><linearGradient id="ak" spreadMethod="pad" gradientTransform="matrix(405.36142 0 0 -405.36142 767.024 1311.285)" gradientUnits="userSpaceOnUse" y2="0" x2="1" y1="0" x1="0"><stop offset="0" stop-color="#a62935"/><stop offset=".992" stop-color="#b3152c"/><stop offset="1" stop-color="#b3152c"/></linearGradient><linearGradient id="an" spreadMethod="pad" gradientTransform="matrix(404.78818 0 0 -404.78818 767.024 1425.641)" gradientUnits="userSpaceOnUse" y2="0" x2="1" y1="0" x1="0"><stop offset="0" stop-color="#a62935"/><stop offset=".992" stop-color="#b3152c"/><stop offset="1" stop-color="#b3152c"/></linearGradient><linearGradient id="aq" spreadMethod="pad" gradientTransform="matrix(415.02359 0 0 -415.02359 767.024 1548.148)" gradientUnits="userSpaceOnUse" y2="0" x2="1" y1="0" x1="0"><stop offset="0" stop-color="#a62935"/><stop offset=".992" stop-color="#b3152c"/><stop offset="1" stop-color="#b3152c"/></linearGradient><linearGradient id="at" spreadMethod="pad" gradientTransform="matrix(415.02359 0 0 -415.02359 767.024 1663.314)" gradientUnits="userSpaceOnUse" y2="0" x2="1" y1="0" x1="0"><stop offset="0" stop-color="#a62935"/><stop offset=".992" stop-color="#b3152c"/><stop offset="1" stop-color="#b3152c"/></linearGradient><linearGradient id="aw" spreadMethod="pad" gradientTransform="matrix(422.70016 0 0 -422.70016 767.024 1788.75)" gradientUnits="userSpaceOnUse" y2="0" x2="1" y1="0" x1="0"><stop offset="0" stop-color="#a62935"/><stop offset=".992" stop-color="#b3152c"/><stop offset="1" stop-color="#b3152c"/></linearGradient><linearGradient id="az" spreadMethod="pad" gradientTransform="matrix(431.58966 0 0 -431.58966 767.024 1909.297)" gradientUnits="userSpaceOnUse" y2="0" x2="1" y1="0" x1="0"><stop offset="0" stop-color="#a62935"/><stop offset=".992" stop-color="#b3152c"/><stop offset="1" stop-color="#b3152c"/></linearGradient><linearGradient id="aC" spreadMethod="pad" gradientTransform="matrix(431.01642 0 0 -431.01642 767.024 2039.373)" gradientUnits="userSpaceOnUse" y2="0" x2="1" y1="0" x1="0"><stop offset="0" stop-color="#a62935"/><stop offset=".992" stop-color="#b3152c"/><stop offset="1" stop-color="#b3152c"/></linearGradient><linearGradient id="aF" spreadMethod="pad" gradientTransform="matrix(404.62021 0 0 -404.62021 767.024 2114.317)" gradientUnits="userSpaceOnUse" y2="0" x2="1" y1="0" x1="0"><stop offset="0" stop-color="#a62935"/><stop offset=".992" stop-color="#b3152c"/><stop offset="1" stop-color="#b3152c"/></linearGradient><linearGradient id="aI" spreadMethod="pad" gradientTransform="matrix(278.80786 0 0 -278.80786 767.024 2172.04)" gradientUnits="userSpaceOnUse" y2="0" x2="1" y1="0" x1="0"><stop offset="0" stop-color="#a62935"/><stop offset=".992" stop-color="#b3152c"/><stop offset="1" stop-color="#b3152c"/></linearGradient><linearGradient id="aL" spreadMethod="pad" gradientTransform="matrix(154.14967 0 0 -154.14967 767.024 2229.896)" gradientUnits="userSpaceOnUse" y2="0" x2="1" y1="0" x1="0"><stop offset="0" stop-color="#a62935"/><stop offset=".992" stop-color="#b3152c"/><stop offset="1" stop-color="#b3152c"/></linearGradient><linearGradient id="aO" spreadMethod="pad" gradientTransform="matrix(459.56012 0 0 -459.56012 181.515 1134.89)" gradientUnits="userSpaceOnUse" y2="0" x2="1" y1="0" x1="0"><stop offset="0" stop-color="#a62935"/><stop offset=".992" stop-color="#b3152c"/><stop offset="1" stop-color="#b3152c"/></linearGradient><linearGradient id="aP" spreadMethod="pad" gradientTransform="translate(-228.488 2594.82) scale(228.488)" gradientUnits="userSpaceOnUse" y2="0" x2="1" y1="0" x1="0"><stop offset="0" stop-color="#a62935"/><stop offset=".992" stop-color="#b3152c"/><stop offset="1" stop-color="#b3152c"/></linearGradient><linearGradient id="aR" spreadMethod="pad" gradientTransform="translate(-150.056 2371.348) scale(150.099)" gradientUnits="userSpaceOnUse" y2="0" x2="1" y1="0" x1="0"><stop offset="0" stop-color="#a62935"/><stop offset=".992" stop-color="#b3152c"/><stop offset="1" stop-color="#b3152c"/></linearGradient><linearGradient id="aS" spreadMethod="pad" gradientTransform="translate(-85.83 2393.983) scale(377.087)" gradientUnits="userSpaceOnUse" y2="0" x2="1" y1="0" x1="0"><stop offset="0" stop-color="#a62935"/><stop offset=".992" stop-color="#b3152c"/><stop offset="1" stop-color="#b3152c"/></linearGradient><linearGradient id="aV" spreadMethod="pad" gradientTransform="matrix(43.5867 0 0 -43.5867 705.664 2201.83)" gradientUnits="userSpaceOnUse" y2="0" x2="1" y1="0" x1="0"><stop offset="0" stop-color="#a62935"/><stop offset=".992" stop-color="#b3152c"/><stop offset="1" stop-color="#b3152c"/></linearGradient><linearGradient id="aX" spreadMethod="pad" gradientTransform="matrix(43.5867 0 0 -43.5867 763.524 2201.83)" gradientUnits="userSpaceOnUse" y2="0" x2="1" y1="0" x1="0"><stop offset="0" stop-color="#a62935"/><stop offset=".992" stop-color="#b3152c"/><stop offset="1" stop-color="#b3152c"/></linearGradient><linearGradient id="aZ" spreadMethod="pad" gradientTransform="translate(705.664 1748.775) scale(43.5867)" gradientUnits="userSpaceOnUse" y2="0" x2="1" y1="0" x1="0"><stop offset="0" stop-color="#a62935"/><stop offset=".992" stop-color="#b3152c"/><stop offset="1" stop-color="#b3152c"/></linearGradient><linearGradient id="bb" spreadMethod="pad" gradientTransform="translate(763.524 1748.775) scale(43.5867)" gradientUnits="userSpaceOnUse" y2="0" x2="1" y1="0" x1="0"><stop offset="0" stop-color="#a62935"/><stop offset=".992" stop-color="#b3152c"/><stop offset="1" stop-color="#b3152c"/></linearGradient><linearGradient id="bc" spreadMethod="pad" gradientTransform="matrix(8 0 0 8 799.611 2202.39)" gradientUnits="userSpaceOnUse" y2="0" x2="1" y1="0" x1="0"><stop offset="0" stop-color="#a62935"/><stop offset=".992" stop-color="#b3152c"/><stop offset="1" stop-color="#b3152c"/></linearGradient><linearGradient id="bd" spreadMethod="pad" gradientTransform="matrix(8 0 0 8 723.457 2248.917)" gradientUnits="userSpaceOnUse" y2="0" x2="1" y1="0" x1="0"><stop offset="0" stop-color="#a62935"/><stop offset=".992" stop-color="#b3152c"/><stop offset="1" stop-color="#b3152c"/></linearGradient><linearGradient id="be" spreadMethod="pad" gradientTransform="matrix(8 0 0 8 763.024 1008.95)" gradientUnits="userSpaceOnUse" y2="0" x2="1" y1="0" x1="0"><stop offset="0" stop-color="#a62935"/><stop offset=".992" stop-color="#b3152c"/><stop offset="1" stop-color="#b3152c"/></linearGradient><linearGradient id="bh" spreadMethod="pad" gradientTransform="matrix(269.57129 0 0 -269.57129 940.426 954.16)" gradientUnits="userSpaceOnUse" y2="0" x2="1" y1="0" x1="0"><stop offset="0" stop-color="#a62935"/><stop offset=".992" stop-color="#b3152c"/><stop offset="1" stop-color="#b3152c"/></linearGradient><linearGradient id="bk" spreadMethod="pad" gradientTransform="matrix(182.23218 0 0 -182.23218 1031.222 874.51)" gradientUnits="userSpaceOnUse" y2="0" x2="1" y1="0" x1="0"><stop offset="0" stop-color="#a62935"/><stop offset=".992" stop-color="#b3152c"/><stop offset="1" stop-color="#b3152c"/></linearGradient><linearGradient id="bn" spreadMethod="pad" gradientTransform="matrix(119.70213 0 0 -119.70213 1094.838 751.56)" gradientUnits="userSpaceOnUse" y2="0" x2="1" y1="0" x1="0"><stop offset="0" stop-color="#a62935"/><stop offset=".992" stop-color="#b3152c"/><stop offset="1" stop-color="#b3152c"/></linearGradient><linearGradient id="bq" spreadMethod="pad" gradientTransform="matrix(119.70213 0 0 -119.70213 1094.838 627.56)" gradientUnits="userSpaceOnUse" y2="0" x2="1" y1="0" x1="0"><stop offset="0" stop-color="#a62935"/><stop offset=".992" stop-color="#b3152c"/><stop offset="1" stop-color="#b3152c"/></linearGradient><linearGradient id="bt" spreadMethod="pad" gradientTransform="matrix(178.18459 0 0 -178.18459 759.818 338.685)" gradientUnits="userSpaceOnUse" y2="0" x2="1" y1="0" x1="0"><stop offset="0" stop-color="#a62935"/><stop offset=".992" stop-color="#b3152c"/><stop offset="1" stop-color="#b3152c"/></linearGradient><linearGradient id="bw" spreadMethod="pad" gradientTransform="matrix(198.23058 0 0 -198.23058 1027.628 376.673)" gradientUnits="userSpaceOnUse" y2="0" x2="1" y1="0" x1="0"><stop offset="0" stop-color="#a62935"/><stop offset=".992" stop-color="#b3152c"/><stop offset="1" stop-color="#b3152c"/></linearGradient><linearGradient id="bz" spreadMethod="pad" gradientTransform="matrix(74.12553 0 0 -74.12553 1152.819 318.625)" gradientUnits="userSpaceOnUse" y2="0" x2="1" y1="0" x1="0"><stop offset="0" stop-color="#a62935"/><stop offset=".992" stop-color="#b3152c"/><stop offset="1" stop-color="#b3152c"/></linearGradient><linearGradient id="bC" spreadMethod="pad" gradientTransform="matrix(369.13699 0 0 -369.13699 843.231 1035.208)" gradientUnits="userSpaceOnUse" y2="0" x2="1" y1="0" x1="0"><stop offset="0" stop-color="#a62935"/><stop offset=".992" stop-color="#b3152c"/><stop offset="1" stop-color="#b3152c"/></linearGradient><linearGradient id="bF" spreadMethod="pad" gradientTransform="matrix(437.89075 0 0 -437.89075 767.024 1085.866)" gradientUnits="userSpaceOnUse" y2="0" x2="1" y1="0" x1="0"><stop offset="0" stop-color="#a62935"/><stop offset=".992" stop-color="#b3152c"/><stop offset="1" stop-color="#b3152c"/></linearGradient><linearGradient id="bI" spreadMethod="pad" gradientTransform="matrix(398.98352 0 0 -398.98352 767.024 1190.989)" gradientUnits="userSpaceOnUse" y2="0" x2="1" y1="0" x1="0"><stop offset="0" stop-color="#a62935"/><stop offset=".992" stop-color="#b3152c"/><stop offset="1" stop-color="#b3152c"/></linearGradient><linearGradient id="bL" spreadMethod="pad" gradientTransform="matrix(39.56708 0 0 -39.56708 727.457 348.691)" gradientUnits="userSpaceOnUse" y2="0" x2="1" y1="0" x1="0"><stop offset="0" stop-color="#a62935"/><stop offset=".992" stop-color="#b3152c"/><stop offset="1" stop-color="#b3152c"/></linearGradient></defs><g clip-path="url(#a)" transform="matrix(1.33333 0 0 -1.33333 0 3459.76)"><g clip-path="url(#b)"><g clip-path="url(#c)" opacity=".72"><path d="M1222.221 531.608L951.838 282.254l-60.613.62 164.023 155.998 39.59 13.001v23.851l119.702 114.029z" fill="url(#d)"/></g></g></g><text style="-inkscape-font-specification:Avenir-Light" transform="matrix(1.33333 0 0 1.33333 444.685 2804.265)" font-weight="300" font-size="47" font-family="Avenir Light" fill="#231f20"><tspan y="0" x="0 23.5 62.698002 94.846001 131.412 167.978">LOUNGE</tspan></text><text style="-inkscape-font-specification:Avenir-Light" transform="matrix(1.33333 0 0 1.33333 1007.504 2754.618)" font-weight="300" font-size="44" font-family="Avenir Light" fill="#231f20"><tspan y="0" x="0 41.535999 78.232002 104.324 131.20799 155.672 187.44 224.136">WORKSHOP</tspan></text><text style="-inkscape-font-specification:Avenir-Black" transform="matrix(1.33333 0 0 1.33333 415.385 2735.746)" font-weight="700" font-size="50" font-family="Avenir Black" fill="#231f20"><tspan y="0" x="0 37.950001 75 109.25 145.35001 160.14999 200.89999">HACKING</tspan></text><path d="M0 0h284.882" fill="none" stroke="url(#e)" stroke-width="16" stroke-miterlimit="10" transform="matrix(1.33333 0 0 -1.33333 415.449 2882.516)"/><text style="-inkscape-font-specification:Avenir-Black" transform="matrix(1.33333 0 0 1.33333 745.937 289.653)" font-weight="700" font-size="53.892" font-family="Avenir Black" fill="#231f20"><tspan y="0" x="0 34.922081 74.856125 105.79019 139.74222 190.61636 224.56837 268.49045">BASEMENT</tspan></text><path d="M0 0l59.708-.241v-40.265h468.274l-15.513 657.288-3.903 165.348-4.584 194.221h-43.666l42.011 1001.296H-423.25V689.259h-69.806l-43.392-258.724 113.198-25.029V1.709L0 0" fill="none" stroke="url(#f)" stroke-width="16" stroke-miterlimit="10" transform="matrix(1.33333 0 0 -1.33333 933.48 3028.586)"/><path d="M526.477 432.933H276.863V328.548h249.614z" fill="none" stroke="url(#g)" stroke-width="7" stroke-miterlimit="10" transform="matrix(1.33333 0 0 -1.33333 0 3459.76)"/><path d="M0 0h-284.882v-109.449H0" fill="none" stroke="url(#h)" stroke-width="16" stroke-miterlimit="10" transform="matrix(1.33333 0 0 -1.33333 748.993 2882.516)"/><path d="M0 0v-104.385" fill="none" stroke="url(#i)" stroke-width="7" stroke-miterlimit="10" transform="matrix(1.33333 0 0 -1.33333 651.31 2882.516)"/><path d="M0 0v-104.385" fill="none" stroke="url(#j)" stroke-width="7" stroke-miterlimit="10" transform="matrix(1.33333 0 0 -1.33333 605.37 2882.516)"/><path d="M0 0v-104.385" fill="none" stroke="url(#k)" stroke-width="7" stroke-miterlimit="10" transform="matrix(1.33333 0 0 -1.33333 561.503 2882.516)"/><path d="M0 0v-104.385" fill="none" stroke="url(#l)" stroke-width="7" stroke-miterlimit="10" transform="matrix(1.33333 0 0 -1.33333 515.563 2882.516)"/><path d="M0 0v-104.385" fill="none" stroke="url(#m)" stroke-width="7" stroke-miterlimit="10" transform="matrix(1.33333 0 0 -1.33333 515.563 2882.516)"/><path d="M0 0v-104.385" fill="none" stroke="url(#n)" stroke-width="7" stroke-miterlimit="10" transform="matrix(1.33333 0 0 -1.33333 469.623 2882.516)"/><path d="M0 0v-104.385" fill="none" stroke="url(#o)" stroke-width="7" stroke-miterlimit="10" transform="matrix(1.33333 0 0 -1.33333 425.756 2882.516)"/><path d="M0 0h284.882" fill="none" stroke="url(#p)" stroke-width="16" stroke-miterlimit="10" transform="matrix(1.33333 0 0 -1.33333 369.15 2882.516)"/><path d="M0 0l74.44-52.047h80.034L270.259 48.951v233.353l90.929 102.611 23.372 1189.034" fill="none" stroke="url(#q)" stroke-width="8" stroke-miterlimit="10" transform="matrix(1.33333 0 0 -1.33333 369.286 2490.322)"/><g clip-path="url(#r)" transform="matrix(1.33333 0 0 -1.33333 0 3459.76)"><g clip-path="url(#s)"><g clip-path="url(#t)" opacity=".72"><path d="M547.223 899.183L328.217 691.244l-35.214 22.808 254.22 245.693z" fill="url(#u)"/></g></g><g clip-path="url(#v)"><g clip-path="url(#w)" opacity=".72"><path d="M547.223 776.03L431.438 675.032h-50.93l166.715 161.559z" fill="url(#x)"/></g></g><g clip-path="url(#y)"><g clip-path="url(#z)" opacity=".72"><path d="M547.223 1009.382l-302.747-277.34-43.388 3.828 437.064 420.735v-44.611z" fill="url(#A)"/></g></g><g clip-path="url(#B)"><g clip-path="url(#C)" opacity=".72"><path d="M639.929 1202.384L157.211 755.529l11.648 66.815 472.217 438.365z" fill="url(#D)"/></g></g><g clip-path="url(#E)"><g clip-path="url(#F)" opacity=".72"><path d="M644.527 1435.424l-367.668-340.195v56.314l368.815 342.207z" fill="url(#G)"/></g></g><g clip-path="url(#H)"><g clip-path="url(#I)" opacity=".72"><path d="M647.338 1552.853L276.859 1210.94v56.314l371.625 343.925z" fill="url(#J)"/></g></g><g clip-path="url(#K)"><g clip-path="url(#L)" opacity=".72"><path d="M644.527 1668.09l-367.668-340.195v56.314l368.815 342.207z" fill="url(#M)"/></g></g><g clip-path="url(#N)"><g clip-path="url(#O)" opacity=".72"><path d="M647.338 1785.519l-370.479-341.913v56.314l371.625 343.925z" fill="url(#P)"/></g></g><g clip-path="url(#Q)"><g clip-path="url(#R)" opacity=".72"><path d="M655.268 1914.767l-378.409-348.872v56.314l379.556 350.884z" fill="url(#S)"/></g></g><g clip-path="url(#T)"><g clip-path="url(#U)" opacity=".72"><path d="M655.841 2031.594l-378.982-349.988v56.314l380.129 352z" fill="url(#V)"/></g></g><g clip-path="url(#W)"><g clip-path="url(#X)" opacity=".72"><path d="M660.951 2166.643l-384.092-354.748v56.314l385.239 356.76z" fill="url(#Y)"/></g></g><g clip-path="url(#Z)"><g clip-path="url(#aa)" opacity=".72"><path d="M661.156 2282.271l-384.297-354.665v56.314l342.649 317.108h42.016z" fill="url(#ab)"/></g></g><g clip-path="url(#ac)"><g clip-path="url(#ad)" opacity=".72"><path d="M555.667 2301.028l-278.808-257.975v56.315l217.34 201.66z" fill="url(#ae)"/></g></g><g><g clip-path="url(#af)"><g clip-path="url(#ag)" opacity=".72"><path d="M431.009 2301.028l-154.15-142.264v56.315l92.872 85.949z" fill="url(#ah)"/></g></g></g><g><g clip-path="url(#ai)"><g clip-path="url(#aj)" opacity=".72"><path d="M1171.239 1469.016l-404.215-373.787v56.314l405.361 375.799z" fill="url(#ak)"/></g></g></g><g><g clip-path="url(#al)"><g clip-path="url(#am)" opacity=".72"><path d="M1170.666 1582.016L767.024 1210.94v56.314l404.788 373.088z" fill="url(#an)"/></g></g></g><g><g clip-path="url(#ao)"><g clip-path="url(#ap)" opacity=".72"><path d="M1180.901 1710.076l-413.877-382.181v56.314l415.024 384.193z" fill="url(#aq)"/></g></g></g><g><g clip-path="url(#ar)"><g clip-path="url(#as)" opacity=".72"><path d="M1180.901 1824.697l-413.877-381.091v56.314l415.024 383.103z" fill="url(#at)"/></g></g></g><g><g clip-path="url(#au)"><g clip-path="url(#av)" opacity=".72"><path d="M1188.578 1953.279l-421.554-387.384v56.314l422.7 389.396z" fill="url(#aw)"/></g></g></g><g><g clip-path="url(#ax)"><g clip-path="url(#ay)" opacity=".72"><path d="M1197.467 2078.663l-430.443-397.057v56.314l431.59 399.069z" fill="url(#az)"/></g></g></g><g><g clip-path="url(#aA)"><g clip-path="url(#aB)" opacity=".72"><path d="M1196.894 2208.525l-429.87-396.63v56.314l431.017 398.642z" fill="url(#aC)"/></g></g></g><g><g clip-path="url(#aD)"><g clip-path="url(#aE)" opacity=".72"><path d="M1171.644 2301.028l-404.62-373.422v56.314l342.648 317.108z" fill="url(#aF)"/></g></g></g><g><g clip-path="url(#aG)"><g clip-path="url(#aH)" opacity=".72"><path d="M1045.832 2301.028l-278.808-257.975v56.315l217.34 201.66z" fill="url(#aI)"/></g></g></g><g><g clip-path="url(#aJ)"><g clip-path="url(#aK)" opacity=".72"><path d="M921.174 2301.028l-154.15-142.264v56.315l92.872 85.949z" fill="url(#aL)"/></g></g></g><g><g clip-path="url(#aM)"><g clip-path="url(#aN)" opacity=".72"><path d="M638.152 1315.232L181.516 892.928l11.648 66.817 56.801 52.894h26.894v25.044l364.217 339.167z" fill="url(#aO)"/></g></g></g></g><path d="M0 0h-228.489" fill="none" stroke="url(#aP)" stroke-width="7" stroke-miterlimit="10" transform="matrix(1.33333 0 0 -1.33333 727.576 2955.482)"/><g clip-path="url(#aQ)" transform="matrix(1.33333 0 0 -1.33333 0 3459.76)"><path d="M0 0l-99.058-1.063s-46.998 81.81-46.998 196.693c0 114.882 55.701 196.692 55.701 196.692h86.386v59.71" fill="none" stroke="url(#aR)" stroke-width="8" stroke-miterlimit="10" transform="translate(807.58 418.68)"/><path d="M0 0h145.062l228.025-100.301v-318.538L152.025-502.39H0" fill="none" stroke="url(#aS)" stroke-width="8" stroke-miterlimit="10" transform="translate(721.751 870.712)"/></g><text style="-inkscape-font-specification:Avenir-Black" transform="matrix(1.33333 0 0 1.33333 922.158 2607.912)" font-weight="700" font-size="45" font-family="Avenir Black" fill="#231f20"><tspan y="0" x="0 29.16 58.32 84.150002 129.14999 157.5 186.66 219.14999 232.47 264.14999 277.47 311.625 339.97501 377.41501">BYTWERK VIDEO </tspan><tspan y="54" x="88.245003 114.075 148.23 176.58 205.78951 231.61951 259.96951">THEATER</tspan></text><g clip-path="url(#aT)" transform="matrix(1.33333 0 0 -1.33333 0 3459.76)"><g clip-path="url(#aU)" opacity=".4"><path d="M0 0s-36.587-10.275-36.587-48.216H0z" fill="none" stroke="url(#aV)" stroke-width="7" stroke-miterlimit="10" transform="translate(745.75 416.538)"/></g><g clip-path="url(#aW)" opacity=".4"><path d="M0 0s-36.587-10.275-36.587-48.216H0z" fill="none" stroke="url(#aX)" stroke-width="7" stroke-miterlimit="10" transform="translate(803.61 416.538)"/></g><g clip-path="url(#aY)" opacity=".4"><path d="M0 0s-36.587 10.275-36.587 48.216H0z" fill="none" stroke="url(#aZ)" stroke-width="7" stroke-miterlimit="10" transform="translate(745.75 822.496)"/></g><g clip-path="url(#ba)" opacity=".4"><path d="M0 0s-36.587 10.275-36.587 48.216H0z" fill="none" stroke="url(#bb)" stroke-width="7" stroke-miterlimit="10" transform="translate(803.61 822.496)"/></g><path d="M0 0v-48.216" fill="none" stroke="url(#bc)" stroke-width="8" stroke-miterlimit="10" transform="translate(803.61 416.538)"/><path d="M0 0v44.839" fill="none" stroke="url(#bd)" stroke-width="8" stroke-miterlimit="10" transform="translate(727.457 323.484)"/><path d="M0 0v1430.315" fill="none" stroke="url(#be)" stroke-width="8" stroke-miterlimit="10" transform="translate(767.024 870.712)"/><g clip-path="url(#bf)"><g clip-path="url(#bg)" opacity=".72"><path d="M1207.826 1028.967L981.93 820.077l-41.504 18.255 269.571 249.912z" fill="url(#bh)"/></g></g><g clip-path="url(#bi)"><g clip-path="url(#bj)" opacity=".72"><path d="M1211.283 911.391l-138.557-133.039-41.504 18.256 182.232 174.059z" fill="url(#bk)"/></g></g><g clip-path="url(#bl)"><g clip-path="url(#bm)" opacity=".72"><path d="M1212.368 778.352l-117.53-112.86v58.107l119.702 114.029z" fill="url(#bn)"/></g></g><g clip-path="url(#bo)"><g clip-path="url(#bp)" opacity=".72"><path d="M1212.368 654.352l-117.53-112.86v58.107l119.702 114.029z" fill="url(#bq)"/></g></g><g><g clip-path="url(#br)"><g clip-path="url(#bs)" opacity=".72"><path d="M938.002 395.115l-117.53-112.861-60.654.62 90.006 85.449h23.952z" fill="url(#bt)"/></g></g></g><g><g clip-path="url(#bu)"><g clip-path="url(#bv)" opacity=".72"><path d="M1223.687 411.815l-134.921-129.561h-61.138l198.23 188.837z" fill="url(#bw)"/></g></g></g><g><g clip-path="url(#bx)"><g clip-path="url(#by)" opacity=".72"><path d="M1224.773 295.099l-10.817-12.225h-61.137l74.125 71.501z" fill="url(#bz)"/></g></g></g><g><g clip-path="url(#bA)"><g clip-path="url(#bB)" opacity=".72"><path d="M1211.222 1152.614L892.358 859.476l-25.545 11.236h-23.582l369.137 340.228z" fill="url(#bC)"/></g></g></g><g><g clip-path="url(#bD)"><g clip-path="url(#bE)" opacity=".72"><path d="M1204.915 1264.868L778.069 870.712h-11.045v46.116l415.024 384.192 22.044-1.289z" fill="url(#bF)"/></g></g></g><g><g clip-path="url(#bG)"><g clip-path="url(#bH)" opacity=".72"><path d="M1164.861 1343.69L767.024 979.961v56.316l398.983 365.739z" fill="url(#bI)"/></g></g></g><g><g clip-path="url(#bJ)"><g clip-path="url(#bK)" opacity=".72"><path d="M727.457 328.548v40.287l39.567-.512z" fill="url(#bL)"/></g></g></g></g></svg>
